<mxfile host="app.diagrams.net" modified="2023-08-16T00:11:21.745Z" agent="Mozilla/5.0 (iPhone; CPU iPhone OS 16_0 like Mac OS X) AppleWebKit/605.1.15 (KHTML, like Gecko) Version/16.0 Mobile/15E148 Safari/604.1" version="21.6.8" etag="Yrh6nwpUI6RRDba9omUM" type="github">
  <diagram name="Page-1" id="ncbdsfbaogm8k9s6Uqq0">
    <mxGraphModel>
      <root>
        <mxCell id="0" />
        <mxCell id="1" parent="0" />
      </root>
    </mxGraphModel>
  </diagram>
</mxfile>
